<mxfile host="app.diagrams.net" modified="2023-05-05T10:00:00.000Z" agent="5.0 (Windows NT 10.0; Win64; x64) AppleWebKit/537.36 (KHTML, like Gecko) Chrome/91.0.4472.124 Safari/537.36" etag="product-list-123" version="14.7.0" type="device">
  <diagram id="product-list-sequence" name="商品一覧表示と検索のシーケンス図">
    <mxGraphModel dx="1422" dy="762" grid="1" gridSize="10" guides="1" tooltips="1" connect="1" arrows="1" fold="1" page="1" pageScale="1" pageWidth="1169" pageHeight="827" math="0" shadow="0">
      <root>
        <mxCell id="0" />
        <mxCell id="1" parent="0" />
        <mxCell id="title" value="商品一覧表示と検索のシーケンス図" style="text;html=1;align=center;verticalAlign=middle;resizable=0;points=[];autosize=1;strokeColor=none;fillColor=none;fontSize=18;fontStyle=1" vertex="1" parent="1">
          <mxGeometry x="380" y="20" width="320" height="40" as="geometry" />
        </mxCell>
        
        <!-- アクター：ユーザー -->
        <mxCell id="user" value="ユーザー" style="shape=umlActor;verticalLabelPosition=bottom;verticalAlign=top;html=1;" vertex="1" parent="1">
          <mxGeometry x="100" y="80" width="30" height="60" as="geometry" />
        </mxCell>
        
        <!-- オブジェクト：ブラウザ -->
        <mxCell id="browser" value="ブラウザ" style="html=1;fontSize=14;" vertex="1" parent="1">
          <mxGeometry x="220" y="90" width="100" height="40" as="geometry" />
        </mxCell>
        
        <!-- オブジェクト：ProductController -->
        <mxCell id="controller" value="商品コントローラ&#xa;(ProductController)" style="html=1;fontSize=14;" vertex="1" parent="1">
          <mxGeometry x="380" y="90" width="160" height="40" as="geometry" />
        </mxCell>
        
        <!-- オブジェクト：ProductService -->
        <mxCell id="service" value="商品サービス&#xa;(ProductService)" style="html=1;fontSize=14;" vertex="1" parent="1">
          <mxGeometry x="600" y="90" width="160" height="40" as="geometry" />
        </mxCell>
        
        <!-- オブジェクト：CategoryService -->
        <mxCell id="categoryService" value="カテゴリサービス&#xa;(CategoryService)" style="html=1;fontSize=14;" vertex="1" parent="1">
          <mxGeometry x="820" y="90" width="160" height="40" as="geometry" />
        </mxCell>
        
        <!-- オブジェクト：ProductRepository -->
        <mxCell id="repository" value="商品リポジトリ&#xa;(ProductRepository)" style="html=1;fontSize=14;" vertex="1" parent="1">
          <mxGeometry x="600" y="480" width="160" height="40" as="geometry" />
        </mxCell>
        
        <!-- ライフライン -->
        <mxCell id="userLine" value="" style="html=1;points=[];perimeter=orthogonalPerimeter;" vertex="1" parent="1">
          <mxGeometry x="115" y="150" width="1" height="640" as="geometry" />
        </mxCell>
        
        <mxCell id="browserLine" value="" style="html=1;points=[];perimeter=orthogonalPerimeter;" vertex="1" parent="1">
          <mxGeometry x="269.5" y="150" width="1" height="640" as="geometry" />
        </mxCell>
        
        <mxCell id="controllerLine" value="" style="html=1;points=[];perimeter=orthogonalPerimeter;" vertex="1" parent="1">
          <mxGeometry x="459.5" y="150" width="1" height="640" as="geometry" />
        </mxCell>
        
        <mxCell id="serviceLine" value="" style="html=1;points=[];perimeter=orthogonalPerimeter;" vertex="1" parent="1">
          <mxGeometry x="679.5" y="150" width="1" height="640" as="geometry" />
        </mxCell>
        
        <mxCell id="categoryServiceLine" value="" style="html=1;points=[];perimeter=orthogonalPerimeter;" vertex="1" parent="1">
          <mxGeometry x="899.5" y="150" width="1" height="640" as="geometry" />
        </mxCell>
        
        <!-- シーケンス：初回アクセス -->
        <!-- ユーザー -> ブラウザ -->
        <mxCell id="userToBrowser" value="商品一覧画面にアクセス" style="html=1;verticalAlign=bottom;endArrow=block;entryX=0;entryY=0;" edge="1" parent="1" source="userLine" target="browserActivation1">
          <mxGeometry relative="1" as="geometry">
            <mxPoint x="180" y="180" as="sourcePoint" />
          </mxGeometry>
        </mxCell>
        
        <!-- ブラウザのアクティベーション -->
        <mxCell id="browserActivation1" value="" style="html=1;points=[];perimeter=orthogonalPerimeter;fillColor=#dae8fc;strokeColor=#6c8ebf;" vertex="1" parent="1">
          <mxGeometry x="265" y="180" width="10" height="80" as="geometry" />
        </mxCell>
        
        <!-- ブラウザ -> コントローラ -->
        <mxCell id="browserToController" value="GET /products" style="html=1;verticalAlign=bottom;endArrow=block;entryX=0;entryY=0;" edge="1" parent="1" source="browserActivation1" target="controllerActivation1">
          <mxGeometry relative="1" as="geometry">
            <mxPoint x="350" y="200" as="sourcePoint" />
          </mxGeometry>
        </mxCell>
        
        <!-- コントローラのアクティベーション -->
        <mxCell id="controllerActivation1" value="" style="html=1;points=[];perimeter=orthogonalPerimeter;fillColor=#d5e8d4;strokeColor=#82b366;" vertex="1" parent="1">
          <mxGeometry x="455" y="200" width="10" height="360" as="geometry" />
        </mxCell>
        
        <!-- コントローラ -> サービス：商品一覧取得 -->
        <mxCell id="controllerToService1" value="findAll()" style="html=1;verticalAlign=bottom;endArrow=block;entryX=0;entryY=0;" edge="1" parent="1" source="controllerActivation1" target="serviceActivation1">
          <mxGeometry relative="1" as="geometry">
            <mxPoint x="530" y="220" as="sourcePoint" />
          </mxGeometry>
        </mxCell>
        
        <!-- サービスのアクティベーション -->
        <mxCell id="serviceActivation1" value="" style="html=1;points=[];perimeter=orthogonalPerimeter;fillColor=#fff2cc;strokeColor=#d6b656;" vertex="1" parent="1">
          <mxGeometry x="675" y="240" width="10" height="60" as="geometry" />
        </mxCell>
        
        <!-- サービス -> リポジトリ -->
        <mxCell id="serviceToRepository1" value="findAll()" style="html=1;verticalAlign=bottom;endArrow=block;" edge="1" parent="1">
          <mxGeometry relative="1" as="geometry">
            <mxPoint x="680" y="280" as="sourcePoint" />
            <mxPoint x="679.5" y="340" as="targetPoint" />
            <Array as="points">
              <mxPoint x="630" y="280" />
              <mxPoint x="630" y="340" />
            </Array>
          </mxGeometry>
        </mxCell>
        
        <!-- サービス -> コントローラ：商品リスト返却 -->
        <mxCell id="serviceToController1" value="List&lt;Product&gt;" style="html=1;verticalAlign=bottom;endArrow=open;dashed=1;endSize=8;" edge="1" parent="1" source="serviceActivation1" target="controllerActivation1">
          <mxGeometry relative="1" as="geometry">
            <mxPoint x="530" y="300" as="targetPoint" />
            <Array as="points">
              <mxPoint x="570" y="300" />
            </Array>
          </mxGeometry>
        </mxCell>
        
        <!-- コントローラ -> カテゴリサービス：カテゴリ一覧取得 -->
        <mxCell id="controllerToCategoryService" value="findAllSorted()" style="html=1;verticalAlign=bottom;endArrow=block;entryX=0;entryY=0;" edge="1" parent="1" source="controllerActivation1" target="categoryServiceActivation">
          <mxGeometry relative="1" as="geometry">
            <mxPoint x="530" y="320" as="sourcePoint" />
          </mxGeometry>
        </mxCell>
        
        <!-- カテゴリサービスのアクティベーション -->
        <mxCell id="categoryServiceActivation" value="" style="html=1;points=[];perimeter=orthogonalPerimeter;fillColor=#fff2cc;strokeColor=#d6b656;" vertex="1" parent="1">
          <mxGeometry x="895" y="340" width="10" height="60" as="geometry" />
        </mxCell>
        
        <!-- カテゴリサービス -> コントローラ：カテゴリリスト返却 -->
        <mxCell id="categoryServiceToController" value="List&lt;Category&gt;" style="html=1;verticalAlign=bottom;endArrow=open;dashed=1;endSize=8;" edge="1" parent="1" source="categoryServiceActivation" target="controllerActivation1">
          <mxGeometry relative="1" as="geometry">
            <mxPoint x="530" y="400" as="targetPoint" />
          </mxGeometry>
        </mxCell>
        
        <!-- 内部処理：モデル準備 -->
        <mxCell id="controllerInternalProcess" value="" style="html=1;points=[];perimeter=orthogonalPerimeter;fillColor=#d5e8d4;strokeColor=#82b366;" vertex="1" parent="1">
          <mxGeometry x="460" y="440" width="10" height="40" as="geometry" />
        </mxCell>
        
        <mxCell id="controllerInternalNote" value="モデルに商品リストと&#xa;カテゴリリストを追加" style="shape=note;size=15;align=left;spacingLeft=5;html=1;whiteSpace=wrap;" vertex="1" parent="1">
          <mxGeometry x="480" y="430" width="160" height="50" as="geometry" />
        </mxCell>
        
        <!-- コントローラ -> ブラウザ：ビュー名返却 -->
        <mxCell id="controllerToBrowser" value="ビュー名: 'product/list'" style="html=1;verticalAlign=bottom;endArrow=open;dashed=1;endSize=8;exitX=0;exitY=0.95;" edge="1" parent="1" source="controllerActivation1" target="browserActivation2">
          <mxGeometry relative="1" as="geometry">
            <mxPoint x="350" y="560" as="targetPoint" />
          </mxGeometry>
        </mxCell>
        
        <!-- ブラウザのアクティベーション (2) -->
        <mxCell id="browserActivation2" value="" style="html=1;points=[];perimeter=orthogonalPerimeter;fillColor=#dae8fc;strokeColor=#6c8ebf;" vertex="1" parent="1">
          <mxGeometry x="265" y="520" width="10" height="80" as="geometry" />
        </mxCell>
        
        <!-- ブラウザ -> ユーザー：画面表示 -->
        <mxCell id="browserToUser" value="商品一覧画面を表示" style="html=1;verticalAlign=bottom;endArrow=open;dashed=1;endSize=8;" edge="1" parent="1" source="browserActivation2" target="userLine">
          <mxGeometry relative="1" as="geometry">
            <mxPoint x="180" y="600" as="targetPoint" />
          </mxGeometry>
        </mxCell>
        
        <!-- シーケンス：検索操作 -->
        <!-- ユーザー -> ブラウザ：検索操作 -->
        <mxCell id="userToBrowser2" value="検索キーワード入力・検索実行" style="html=1;verticalAlign=bottom;endArrow=block;entryX=0;entryY=0;" edge="1" parent="1" target="browserActivation3">
          <mxGeometry relative="1" as="geometry">
            <mxPoint x="115" y="650" as="sourcePoint" />
          </mxGeometry>
        </mxCell>
        
        <!-- ブラウザのアクティベーション (3) -->
        <mxCell id="browserActivation3" value="" style="html=1;points=[];perimeter=orthogonalPerimeter;fillColor=#dae8fc;strokeColor=#6c8ebf;" vertex="1" parent="1">
          <mxGeometry x="265" y="650" width="10" height="50" as="geometry" />
        </mxCell>
        
        <!-- ブラウザ -> コントローラ：検索リクエスト -->
        <mxCell id="browserToController2" value="GET /products?keyword=検索語" style="html=1;verticalAlign=bottom;endArrow=block;entryX=0;entryY=0;" edge="1" parent="1" source="browserActivation3" target="controllerActivation2">
          <mxGeometry relative="1" as="geometry">
            <mxPoint x="350" y="680" as="sourcePoint" />
          </mxGeometry>
        </mxCell>
        
        <!-- コントローラのアクティベーション (2) -->
        <mxCell id="controllerActivation2" value="" style="html=1;points=[];perimeter=orthogonalPerimeter;fillColor=#d5e8d4;strokeColor=#82b366;" vertex="1" parent="1">
          <mxGeometry x="455" y="680" width="10" height="60" as="geometry" />
        </mxCell>
        
        <!-- コントローラ -> サービス：キーワード検索 -->
        <mxCell id="controllerToService2" value="searchByKeyword('検索語')" style="html=1;verticalAlign=bottom;endArrow=block;" edge="1" parent="1" source="controllerActivation2" target="serviceActivation2">
          <mxGeometry relative="1" as="geometry">
            <mxPoint x="530" y="700" as="sourcePoint" />
          </mxGeometry>
        </mxCell>
        
        <!-- サービスのアクティベーション (2) -->
        <mxCell id="serviceActivation2" value="" style="html=1;points=[];perimeter=orthogonalPerimeter;fillColor=#fff2cc;strokeColor=#d6b656;" vertex="1" parent="1">
          <mxGeometry x="675" y="700" width="10" height="40" as="geometry" />
        </mxCell>
        
        <!-- 注記：検索処理の続き -->
        <mxCell id="searchContinuation" value="※検索結果表示のフローは&#xa;上記の「商品一覧表示」と同様" style="shape=note;size=15;align=left;spacingLeft=5;html=1;whiteSpace=wrap;" vertex="1" parent="1">
          <mxGeometry x="480" y="750" width="200" height="40" as="geometry" />
        </mxCell>
        
      </root>
    </mxGraphModel>
  </diagram>
</mxfile>